<?xml version="1.0" encoding="utf-8"?>
<!-- Generator: Adobe Illustrator 16.0.0, SVG Export Plug-In . SVG Version: 6.00 Build 0)  -->
<!DOCTYPE svg PUBLIC "-//W3C//DTD SVG 1.1//EN" "http://www.w3.org/Graphics/SVG/1.1/DTD/svg11.dtd">
<svg version="1.1" id="Layer_1" xmlns="http://www.w3.org/2000/svg" xmlns:xlink="http://www.w3.org/1999/xlink" x="0px" y="0px"
	 width="354px" height="111px" viewBox="0 0 354 111" enable-background="new 0 0 354 111" xml:space="preserve">
<g>
	<g>
		<g>
			<path fill="#414042" d="M92.266,26.096c-4.736-2.099-9.03-3.251-13.55-4.015c-4.537-0.715-9.383-0.96-15.522-0.451
				c-1.039,0.104-2.405,0.212-4.387,0.461c-1.982,0.238-4.581,0.587-8.08,1.254c-2.179,0.411-4.728,0.964-7.507,1.743
				c-2.778,0.776-5.792,1.759-8.868,3.126c-3.067,1.374-6.227,3.127-9.09,5.619c-0.706,0.636-1.396,1.317-2.045,2.042
				c-0.631,0.761-1.274,1.514-1.768,2.348c-0.542,0.81-1.005,1.643-1.45,2.54c-0.208,0.494-0.419,0.975-0.601,1.481
				c-0.154,0.539-0.314,1.067-0.432,1.617c-0.475,2.238-0.131,4.809,0.806,6.762c0.919,1.982,2.19,3.411,3.396,4.549
				c1.219,1.146,2.425,2.003,3.554,2.734c1.13,0.744,2.19,1.325,3.157,1.851c1.936,1.029,3.502,1.728,4.583,2.219
				c1.079,0.472,1.677,0.734,1.677,0.734s2.012,0.87,5.216,2.187c1.596,0.663,3.49,1.441,5.477,2.361
				c0.503,0.227,0.991,0.472,1.496,0.719c0.5,0.262,0.901,0.456,1.5,0.801c1.121,0.613,2.286,1.25,3.482,1.904
				c2.333,1.276,4.711,2.635,6.947,4.146c2.216,1.505,4.318,3.2,5.729,4.954c0.702,0.869,1.197,1.736,1.434,2.477
				c0.244,0.75,0.255,1.34,0.092,1.989c-0.166,0.663-0.493,1.331-1.124,2.131l-0.215,0.292c-0.04,0.032-0.076,0.066-0.108,0.103
				s-0.061,0.076-0.087,0.119l-0.146,0.097c-0.088,0.069-0.163,0.152-0.326,0.221c-0.151,0.069-0.243,0.164-0.428,0.229
				c-1.313,0.581-3.12,0.898-4.739,1.027c-1.646,0.131-3.18,0.146-4.548,0.108c-2.74-0.071-4.808-0.303-6.216-0.451
				c-5.718-0.652-10.271-1.246-14.654-1.62c-2.196-0.181-4.346-0.357-6.58-0.542c-2.234-0.205-4.558-0.354-7.076-0.869
				c2.001,1.65,4.089,2.892,6.108,4.028c2.035,1.123,4.063,2.086,6.193,2.943c4.269,1.694,8.929,3.038,15.116,3.808
				c1.534,0.176,3.764,0.441,6.891,0.535c1.564,0.045,3.356,0.041,5.433-0.123c2.083-0.203,4.454-0.46,7.357-1.711
				c0.365-0.146,0.765-0.397,1.148-0.606c0.382-0.196,0.783-0.493,1.18-0.805l0.588-0.472l0.545-0.574l0.531-0.597l0.355-0.476
				c0.943-1.212,1.947-2.917,2.431-4.912c0.524-1.995,0.423-4.311-0.235-6.26c-0.638-1.97-1.675-3.61-2.793-5.006
				c-2.269-2.78-4.882-4.771-7.454-6.535c-2.583-1.741-5.174-3.208-7.593-4.527c-1.181-0.643-2.329-1.268-3.435-1.87
				c-0.5-0.289-1.212-0.653-1.792-0.952c-0.588-0.287-1.165-0.573-1.719-0.823c-2.223-1.023-4.173-1.816-5.786-2.483
				c-3.171-1.322-5.106-2.128-5.106-2.128s-0.562-0.247-1.573-0.693c-0.997-0.455-2.443-1.107-4.097-1.992
				c-0.817-0.447-1.71-0.939-2.57-1.512c-0.873-0.563-1.745-1.199-2.47-1.893c-0.736-0.688-1.324-1.431-1.621-2.093
				c-0.294-0.67-0.378-1.213-0.239-1.99c0.049-0.197,0.123-0.406,0.167-0.616l0.281-0.68c0.257-0.498,0.557-1.048,0.902-1.552
				c0.634-1.053,1.488-1.92,2.454-2.814c1.987-1.729,4.497-3.172,7.086-4.323c5.22-2.291,10.633-3.569,14.66-4.345
				c3.246-0.624,5.69-0.959,7.555-1.189c1.864-0.243,3.157-0.352,4.137-0.461c5.802-0.54,10.36-0.995,14.721-1.595
				C82.989,27.257,87.131,26.461,92.266,26.096z"/>
		</g>
	</g>
</g>
<g>
	<g>
		<g>
			<path fill="#414042" d="M79.273,80.77c1.177-5.033,2.236-9.143,3.268-13.379c0.545-2.125,1.091-4.247,1.672-6.512
				c0.275-1.143,0.668-2.268,0.979-3.487c0.195-0.584,0.395-1.182,0.599-1.795c0.099-0.307,0.2-0.617,0.302-0.932
				c0.121-0.298,0.243-0.601,0.367-0.907c0.172-0.41,0.34-0.913,0.593-1.461c0.277-0.522,0.564-1.173,0.957-1.871
				c0.425-0.653,0.882-1.46,1.528-2.166c0.615-0.763,1.401-1.404,2.276-1.89c0.22-0.05,0.676-0.328,0.676-0.328
				s0.182-0.011,0.373-0.045l0.143-0.028c0.07-0.02,0.139-0.038,0.202-0.055c1.038-0.167,2.18,0.065,3.321,0.539
				c0.287,0.135,0.569,0.269,0.846,0.399c0.277,0.155,0.547,0.352,0.815,0.516c0.545,0.301,1.036,0.756,1.519,1.13
				c0.495,0.35,0.906,0.846,1.329,1.226c0.427,0.38,0.786,0.819,1.13,1.211c0.707,0.759,1.243,1.505,1.684,2.086
				c1.602,2.177,2.948,4.269,4.139,6.282c0.306,0.499,0.606,0.989,0.904,1.474c0.282,0.494,0.561,0.981,0.837,1.465
				c0.284,0.477,0.566,0.95,0.847,1.421l0.798,1.424c2.147,3.769,4.274,7.43,6.624,12.027c0.079-5.155-0.248-9.557-1.287-14.096
				l-0.415-1.714c-0.177-0.571-0.355-1.145-0.534-1.724c-0.195-0.583-0.392-1.17-0.591-1.765c-0.242-0.588-0.486-1.184-0.735-1.789
				c-1.013-2.426-2.382-4.964-4.305-7.631c-0.532-0.718-1.179-1.623-2.083-2.618c-0.438-0.503-0.892-1.052-1.47-1.587
				c-0.577-0.536-1.103-1.146-1.828-1.694c-0.703-0.559-1.391-1.172-2.278-1.7c-0.431-0.271-0.852-0.561-1.32-0.822
				c-0.496-0.238-1.001-0.481-1.515-0.728c-2.103-0.896-4.783-1.55-7.682-1.087c-0.174,0.037-0.364,0.077-0.559,0.119l-0.388,0.093
				c-0.514,0.129-0.971,0.267-0.971,0.267c0,0-1.259,0.468-1.763,0.733c-2.142,1.14-3.633,2.523-4.672,3.773
				c-1.103,1.25-1.76,2.396-2.376,3.378c-0.555,0.99-0.933,1.84-1.299,2.566c-0.329,0.729-0.536,1.343-0.749,1.872
				c-0.148,0.392-0.294,0.778-0.438,1.159c-0.112,0.383-0.223,0.76-0.333,1.133c-0.21,0.746-0.422,1.475-0.596,2.187
				c-0.267,1.423-0.573,2.784-0.702,4.088c-0.122,1.305-0.28,2.56-0.288,3.775c-0.016,1.215-0.021,2.396,0.021,3.554
				C77.092,71.487,77.96,75.79,79.273,80.77z"/>
		</g>
	</g>
</g>
<g>
	<g>
		<g>
			<path fill="#414042" d="M79.266,58.098c1.046,2.674,2.005,4.25,3.952,4.545c0.525,0.067,1.581,0.178,2.868,0.303
				c1.29,0.134,2.78,0.154,4.22,0.233c2.857,0.08,5.43,0.066,5.429,0.066c0,0,0.639-0.002,1.629-0.006
				c0.987-0.009,2.323-0.021,3.723-0.035c2.795-0.048,5.784-0.109,6.786-0.162c1.833-0.083,2.842-1.437,4.393-3.944
				c-1.55-2.476-2.646-3.818-4.526-3.855c-1.008-0.012-4.056,0.05-6.797,0.114c-2.733,0.046-5.218,0.088-5.218,0.088
				c0,0-2.463-0.02-5.138-0.11c-1.323-0.083-2.73-0.103-3.881-0.22c-1.154-0.108-2.102-0.19-2.577-0.219
				C82.392,54.746,81.286,55.883,79.266,58.098z"/>
		</g>
	</g>
</g>
<g>
	<g>
		<g>
			<path fill="#414042" d="M123.266,70.722c0.325-2.561,0.877-4.806,1.499-6.912c0.628-2.102,1.335-4.064,2.129-5.987
				c0.187-0.485,0.409-0.955,0.616-1.432l0.155-0.358c0.039-0.071,0.055-0.057,0.082-0.087c0.048-0.039,0.094-0.072,0.136-0.099
				c0.169-0.101,0.291-0.099,0.377-0.055c0.178,0.063,0.155,0.438,0.142,0.409l-0.005,0.005c0,0.001-0.003-0.003-0.004-0.004
				c0.018,0.034-0.061-0.109,0.091,0.17c0.211,0.385,0.439,0.8,0.686,1.25c0.567,0.913,1.139,1.972,2.048,3.19
				c0.228,0.317,0.464,0.645,0.708,0.985c0.424,0.468,0.949,1,1.445,1.525c0.507,0.531,1.031,1.08,1.573,1.648
				c0.561,0.547,1.171,1.078,1.786,1.646c0.38,0.349,0.826,0.757,1.314,1.206c0.123,0.112,0.247,0.226,0.375,0.342l0.048,0.044
				c0.015-0.009,0.029-0.029,0.044-0.043l0.089-0.094l0.181-0.19c0.243-0.256,0.493-0.521,0.749-0.79
				c0.51-0.539,1.039-1.098,1.566-1.656c0.525-0.562,1.012-1.182,1.497-1.745c0.48-0.57,0.939-1.115,1.358-1.612
				c0.217-0.245,0.39-0.492,0.483-0.625c0.091-0.13,0.175-0.251,0.253-0.362c0.308-0.443,0.5-0.719,0.5-0.719
				s0.164-0.229,0.433-0.604c0.25-0.374,0.597-0.894,0.986-1.477c0.775-1.165,1.647-2.578,2.254-3.567l0.045-0.074
				c0.008-0.013,0.002-0.003,0.004-0.006l0,0l-0.001,0.001l-0.001,0.002l-0.004,0.006l-0.008,0.01
				c-0.004,0.004-0.007,0.007-0.007,0.002c1.124,2.019,1.625,2.921,1.95,3.504c2.964,5.277,5.659,9.167,8.486,12.692
				c2.874,3.486,5.803,6.692,9.679,10.138c-1.792-4.813-3.024-8.925-4.753-13.052c-1.674-4.152-3.738-8.361-6.592-13.565
				c-0.211-0.384-0.452-0.82-0.739-1.341c-0.144-0.261-0.299-0.542-0.469-0.85c-0.09-0.166-0.184-0.337-0.282-0.517
				c-0.158-0.315-0.323-0.643-0.495-0.984c-1.391-2.793-3.14-6.104-5.883-11.976c-0.341,0.564-3.832,5.785-7.612,11.883
				c-0.618,0.985-1.447,2.352-2.142,3.423c-0.346,0.535-0.655,1.012-0.877,1.355c-0.227,0.326-0.365,0.525-0.365,0.525
				s-0.169,0.235-0.441,0.612c-0.423,0.593-0.283,0.386-0.308,0.414c-0.001-0.013,0.013-0.039,0.016-0.01l0.008,0.011
				c-0.006-0.009,0.019,0.027-0.013-0.019c-0.163-0.23-0.32-0.453-0.472-0.668c-0.668-0.871-1.165-1.789-1.627-2.518
				c-0.22-0.398-0.423-0.766-0.611-1.105c-0.359-0.67-0.689-1.286-0.994-1.856c-0.659-1.232-1.209-2.262-1.685-3.152
				c-0.703-1.301-1.398-2.459-2.069-3.629c-0.34-0.584-0.677-1.16-1.009-1.73c-0.167-0.284-0.332-0.566-0.497-0.847l-0.246-0.417
				c-0.081-0.104-0.165-0.394-0.24-0.175c-0.328,0.465-0.651,0.925-0.971,1.379c-0.329,0.477-0.654,0.949-0.976,1.417
				c-0.59,0.883-1.168,1.748-1.737,2.6l-0.409,0.629l-0.375,0.711c-0.242,0.47-0.482,0.937-0.722,1.401
				c-0.411,1.022-0.838,2.003-1.148,3.021c-0.144,0.509-0.288,1.017-0.431,1.521l-0.194,0.718l-0.074,0.461
				c-0.096,0.614-0.193,1.218-0.24,1.821c-0.234,2.406-0.17,4.737,0.142,7.088C121.786,65.928,122.352,68.309,123.266,70.722z"/>
		</g>
	</g>
</g>
<g>
	<g>
		<g>
			<path fill="#414042" d="M215,19.144c-5.064-0.969-9.359-1.639-13.986-1.693c-2.313-0.022-4.709,0.109-7.321,0.539
				c-2.608,0.436-5.452,1.131-8.576,2.589c-1.051,0.504-2.452,1.198-4.361,2.625c-0.945,0.725-2.026,1.651-3.099,2.987
				c-1.071,1.318-2.144,3.063-2.826,5.239c-0.162,0.461-0.293,0.966-0.399,1.509c-0.133,0.543-0.214,1.116-0.276,1.715
				c-0.02,0.176-0.04,0.354-0.061,0.534c-0.036,0.21-0.028,0.417-0.014,0.624c0.018,0.34,0.037,0.686,0.055,1.038
				c0.038,0.674,0.151,1.233,0.231,1.875c0.404,2.419,1.064,4.728,1.717,6.836c0.654,2.102,1.318,3.964,1.815,5.31
				c0.507,1.339,0.823,2.173,0.823,2.173s1.041,2.791,2.549,6.288c0.379,0.876,0.781,1.795,1.217,2.734
				c0.23,0.489,0.462,0.981,0.694,1.475c0.127,0.258,0.246,0.519,0.382,0.774l0.48,0.747c0.656,0.974,1.248,2.002,1.938,2.834
				c0.702,0.821,1.369,1.6,1.974,2.307c3.73,3.825,7.626,5.852,10.634,7.046c0.752,0.35,1.469,0.58,2.137,0.798
				c0.667,0.221,1.286,0.425,1.856,0.614c1.146,0.309,2.103,0.536,2.881,0.732c1.571,0.353,3.063,0.591,4.48,0.778
				c1.411,0.135,2.767,0.303,4.049,0.321c2.577,0.105,4.929,0.01,7.199-0.19c4.543-0.404,8.754-1.269,13.807-2.301
				c-4.952-1.457-9.146-2.514-13.489-3.414c-2.172-0.451-4.386-0.854-6.738-1.285c-1.191-0.182-2.375-0.465-3.647-0.674
				c-1.249-0.257-2.553-0.518-3.899-0.834c-0.656-0.171-1.463-0.382-2.431-0.635c-0.465-0.157-0.968-0.327-1.511-0.511
				c-0.545-0.179-1.135-0.365-1.711-0.645c-2.411-0.957-5.262-2.486-7.956-5.245c-0.44-0.518-0.924-1.089-1.434-1.69
				c-0.508-0.601-0.876-1.304-1.356-1.969l-0.347-0.507c-0.1-0.186-0.187-0.385-0.282-0.577c-0.197-0.416-0.393-0.832-0.587-1.243
				c-0.406-0.865-0.791-1.737-1.152-2.563c-1.446-3.313-2.455-5.962-2.455-5.962s-0.294-0.791-0.766-2.061
				c-0.462-1.271-1.077-3.028-1.664-4.943c-0.586-1.906-1.163-4.009-1.453-5.789c-0.125-0.856-0.226-1.736-0.157-1.947
				c0.032-0.338,0.071-0.656,0.146-0.936c0.05-0.292,0.115-0.556,0.201-0.786c0.347-1.105,0.864-1.953,1.432-2.661
				c0.558-0.711,1.189-1.261,1.777-1.713c1.194-0.898,2.191-1.423,2.964-1.798c2.299-1.107,4.631-1.887,6.844-2.581
				c2.218-0.696,4.342-1.299,6.438-1.909C205.967,21.91,210.066,20.661,215,19.144z"/>
		</g>
	</g>
</g>
<g>
	<g>
		<g>
			<path fill="#414042" d="M185.052,55.693c1.414,2.456,2.475,3.779,4.244,3.792c0.479,0.003,1.43-0.074,2.592-0.151
				c1.168-0.066,2.524-0.204,3.811-0.363c1.301-0.14,2.511-0.304,3.396-0.433c0.89-0.125,1.464-0.205,1.464-0.205
				s2.243-0.283,4.711-0.595c2.436-0.316,5.026-0.471,5.896-0.582c1.595-0.112,2.43-1.478,3.835-4.011
				c-1.414-2.451-2.493-3.778-4.273-3.777c-0.952,0.049-3.846,0.229-6.403,0.578c-1.305,0.145-2.475,0.334-3.371,0.454
				c-0.882,0.125-1.45,0.205-1.45,0.205s-0.561,0.071-1.429,0.182c-0.872,0.116-2.045,0.263-3.249,0.383
				c-1.214,0.144-2.476,0.268-3.536,0.332c-1.063,0.086-1.935,0.157-2.371,0.193C187.311,51.793,186.458,53.165,185.052,55.693z"/>
		</g>
	</g>
</g>
<g>
	<g>
		<g>
			<path fill="#414042" d="M227.002,72c0.924-2.051,1.958-3.432,2.669-4.991c0.744-1.54,1.254-3.156,1.585-5.279
				c0.07-0.481,0.183-1.163,0.327-1.983c0.075-0.409,0.158-0.853,0.245-1.323c0.041-0.213,0.083-0.433,0.126-0.658l0.034-0.15
				l0.028-0.127l-0.001,0.007l-0.002,0.014c-0.003,0.007-0.006,0.021-0.011,0.019c-0.012-0.014-0.021-0.028-0.025-0.039
				c1.152,1.432,2.216,2.755,3.123,3.883c2.025,2.496,3.349,4.126,3.349,4.126s0.74,0.92,2.212,2.639
				c0.22,0.25,0.451,0.515,0.696,0.794c0.403,0.448,0.817,0.935,1.283,1.396c0.459,0.471,0.939,0.964,1.44,1.478
				c0.251,0.257,0.507,0.52,0.768,0.787c0.262,0.218,0.529,0.44,0.802,0.667c0.545,0.45,1.11,0.917,1.696,1.401
				c0.552,0.331,1.122,0.674,1.712,1.027c1.242,0.745,2.563,1.536,3.958,2.373c0.467-1.855,1.036-4.114,1.643-6.524
				c0.125-1.396,0.384-2.709,0.31-4.358c-0.014-0.795,0.024-1.566-0.032-2.383c-0.045-0.717-0.089-1.431-0.133-2.137
				c-0.273-3.323-0.608-6.189-0.722-7.522c-0.205-2.179-0.654-3.806-1.291-5.352c-0.609-1.558-1.54-3.006-2.287-5.138
				c-1.687,1.539-2.743,3.292-3.437,5.083c-0.678,1.813-0.915,3.73-0.759,6.061c0.085,1.426,0.415,4.417,0.661,7.483l0.021,0.286
				v-0.004l-0.001-0.008v-0.01l0.001-0.017c0.002-0.01,0.006-0.015,0.01-0.015c0.012,0.01,0.018,0.02,0.021,0.027l0.003,0.009
				c0.002,0.003-0.003-0.002-0.006-0.005c-0.157-0.179-0.306-0.349-0.446-0.51c-1.371-1.621-2.102-2.485-2.102-2.485
				s-1.287-1.6-3.258-4.051c-0.495-0.623-1.033-1.299-1.605-2.018c-0.673-0.833-1.385-1.716-2.126-2.633
				c-0.646-0.772-1.305-1.559-1.973-2.358c-0.67-0.79-1.364-1.485-2.059-2.246c-1.396-1.496-2.769-2.884-4.268-4.448
				c-0.862,1.83-1.756,3.726-2.636,5.591c-0.199,0.508-0.397,1.014-0.595,1.516c-0.096,0.255-0.202,0.492-0.288,0.759l-0.235,0.835
				c-0.156,0.554-0.311,1.102-0.463,1.642c-0.153,0.541-0.236,1.016-0.354,1.514c-0.109,0.49-0.216,0.971-0.32,1.44
				c-0.058,0.298-0.114,0.589-0.168,0.872c-0.096,0.523-0.192,1.016-0.262,1.471c-0.15,0.908-0.264,1.664-0.328,2.198
				c-0.303,2.356-0.134,4.272,0.422,6.086C224.535,68.499,225.45,70.318,227.002,72z"/>
		</g>
	</g>
</g>
<g>
	<g>
		<g>
			<path fill="#414042" d="M265.51,63.644c-0.691,0.795-1.326,1.517-1.915,2.074c-0.147,0.138-0.292,0.256-0.43,0.35
				c-0.068,0.032-0.136,0.083-0.196,0.093l-0.086,0.008c-0.139-0.033,0.211,0.068,0.419,0.179l0.594,0.307
				c0.168,0.102,0.328,0.227,0.417,0.29c0.238,0.216,0.239,0.326,0.236,0.284c-0.026-0.142,0.542-0.761,1.476-1.302l0.378-0.23
				l0.215-0.121c0.02-0.002,0.03-0.025,0.042-0.048c0.024-0.035,0.041-0.09,0.055-0.151c0.028-0.117,0.046-0.266,0.059-0.418
				c0.025-0.313,0.03-0.667,0.02-1.042c-0.023-0.75-0.117-1.59-0.293-2.533c-0.12-0.643-0.314-1.703-0.521-3.009
				c-0.042-0.276-0.087-0.565-0.133-0.863l0.004,0.008l0.004,0.018c0.005,0.028-0.001,0.045-0.018,0.009l-0.015-0.019l-0.003-0.005
				c-0.011-0.008,0.022,0.014-0.023-0.018c0.187,0.127,0.362,0.246,0.527,0.357c1.386,0.948,2.048,1.365,2.048,1.365
				s1.333,0.895,3.539,2.264c1.104,0.686,2.424,1.491,3.913,2.364c0.471,0.271,0.952,0.55,1.445,0.835
				c0.732,0.415,1.481,0.838,2.244,1.271c1.602,0.839,3.264,1.71,4.97,2.604c0.513-0.609,1.049-1.246,1.598-1.897
				c0.584-0.681,1.158-1.321,1.553-2.225c0.848-1.739,1.001-4.261,0.913-6.556l-0.018-0.43l-0.023-0.362l-0.03-0.464
				c-0.025-0.3-0.05-0.593-0.074-0.879c-0.058-0.558-0.112-1.085-0.163-1.571c-0.12-0.941-0.22-1.72-0.287-2.25
				c-0.288-2.044-0.839-3.531-1.617-4.896c-0.39-0.685-0.841-1.339-1.33-2.03c-0.483-0.699-1.031-1.412-1.492-2.363
				c-0.771,0.73-1.346,1.598-1.812,2.419c-0.464,0.832-0.812,1.651-1.067,2.478c-0.513,1.659-0.645,3.35-0.422,5.362
				c0.056,0.504,0.139,1.245,0.238,2.14c0.042,0.435,0.088,0.906,0.136,1.406c0.027,0.38,0.057,0.782,0.087,1.196
				c-0.005-0.013-0.004-0.049,0.014-0.036l0.015,0.012c-0.318-0.184-0.625-0.362-0.917-0.531c-1.431-0.831-2.702-1.601-3.759-2.251
				c-2.116-1.301-3.373-2.134-3.374-2.134c0,0-0.611-0.412-1.907-1.284c-0.169-0.116-0.349-0.24-0.54-0.371
				c-0.379-0.282-0.78-0.581-1.205-0.896c-0.415-0.312-0.854-0.639-1.314-0.984c-0.229-0.172-0.466-0.349-0.707-0.53l-0.183-0.137
				l-0.194-0.201l-0.396-0.408c-0.534-0.551-1.092-1.126-1.674-1.728c-0.291-0.3-0.588-0.607-0.892-0.92
				c-0.343-0.396-0.763-0.947-1.153-1.429c-1.697-2.127-3.526-4.42-5.491-6.883c0.011,1.534,0.025,3.591,0.042,5.88
				c0.009,1.305,0.018,2.676,0.026,4.07c0,1.389,0.022,2.88,0.158,4.473c0.123,1.578,0.298,3.19,0.499,4.74
				c0.109,0.777,0.216,1.536,0.319,2.271c0.068,0.435,0.135,0.855,0.198,1.258c0.231,1.41,0.461,2.579,0.617,3.301
				c0.23,1.06,0.541,1.999,0.96,2.881c0.21,0.442,0.445,0.867,0.729,1.303c0.296,0.446,0.586,0.86,1.14,1.481l0.254,0.269
				c0.103,0.104,0.238,0.233,0.361,0.337c0.177,0.149,0.358,0.291,0.635,0.449c0.174,0.098,0.359,0.183,0.546,0.248
				c0.153,0.06,0.517,0.145,0.779,0.157c0.282,0.022,0.563-0.003,0.856-0.078c0.279-0.067,0.591-0.201,0.733-0.301
				c0.179-0.11,0.348-0.24,0.497-0.38c0.117-0.118,0.175-0.199,0.257-0.307c0.174-0.232,0.228-0.371,0.285-0.511
				c0.07-0.159,0.1-0.278,0.117-0.376c0.147-0.84-0.025-1.271-0.161-1.767C266.527,65.393,266.058,64.55,265.51,63.644z"/>
		</g>
	</g>
</g>
<g>
	<g>
		<g>
			<path fill="#414042" d="M294.51,43.644c-2.492,1.083-3.84,1.818-3.9,3.114c-0.064,1.404,0,8.434,0,8.434s-0.064,7.03,0,8.434
				c0.061,1.296,1.408,2.031,3.9,3.114c2.491-1.083,3.84-1.818,3.9-3.114c0.065-1.404,0-8.434,0-8.434s0.065-7.03,0-8.434
				C298.35,45.462,297.001,44.727,294.51,43.644z"/>
		</g>
	</g>
</g>
<g>
	<path fill="#6566AE" d="M80.751,87.417c58.318,0,115.632-0.145,171.181-1.978c89.954-2.971,36.256-4.077,69.37-1.402"/>
	<g>
		<g>
			<g>
				<g opacity="0.85">
					<g>
						<path fill="#2B3990" d="M301.544,81.901c-0.795,0.037-1.597,0.075-2.396,0.112c0.406,0.042,0.812,0.123,1.231,0.265
							C300.909,82.354,301.168,82.124,301.544,81.901z"/>
						<path fill="#2B3990" d="M296.93,82.105c-0.145,0.006-0.29,0.012-0.425,0.017c-0.126,0.039-0.248,0.076-0.358,0.11
							L296.93,82.105z"/>
						<path fill="#2B3990" d="M292.77,82.585c0.741,0.014,1.446-0.057,2.125-0.154C294.288,82.392,293.587,82.427,292.77,82.585z"/>
						<path fill="#2B3990" d="M296.111,82.638c-0.265-0.127-0.399-0.269,0.018-0.402l0.018-0.004
							c-0.414,0.066-0.824,0.131-1.252,0.199C295.349,82.462,295.758,82.537,296.111,82.638z"/>
						<path fill="#2B3990" d="M296.111,82.638c0.256,0.122,0.658,0.225,0.797,0.296C296.675,82.822,296.408,82.722,296.111,82.638z"
							/>
						<path fill="#2B3990" d="M295.254,86.083c-0.418,0.129-0.373-0.834-1.197-0.575c-1.947,0.374-3.605,0.9-5.445,0.995
							c-0.825,0.254-2.196-0.749-3.021-0.496c-1.954,0.36-6.922,1.881-3.963,1.686c4.448-0.35,7.338-0.729,11.33-1.133
							c3.229-0.554,6.327-1.205,9.635-1.8c0.934-0.124,1.805-0.104,2.7-0.129c-1.161-0.045-2.348-0.09-3.663-0.141
							C299.903,84.34,297.921,85.709,295.254,86.083z"/>
						<path fill="#2B3990" d="M319.298,83.111c-0.423,0.071-1.277,0.213-1.277,0.213c-1.799-0.839-3.758-0.778-5.731-0.726
							c0.261,0.199,0.532,0.384,0.807,0.574c1.122,0.062,1.277-0.191,0.313-0.503c2.197,0.832,4.349,1.105,6.559,1.197
							C319.853,83.595,319.906,83.298,319.298,83.111z"/>
						<path fill="#2B3990" d="M321.266,83.9c-0.435-0.012-0.871-0.023-1.298-0.034c0.008,0.028,0.026,0.057,0.04,0.087
							c0.438-0.009,0.875-0.018,1.303-0.026L321.266,83.9z"/>
						<path fill="#2B3990" d="M283.941,83.903c-5.563,0.311-10.809,0.443-15.93,0.563c-0.387,0.203-0.654,0.433-1.188,0.338
							c-0.405-0.153-0.813-0.244-1.214-0.3c-0.749,0.009-1.496,0.019-2.238,0.028c-0.258,0.034-0.52,0.068-0.785,0.103
							c-0.004,0.001-0.016,0.004-0.021,0.005c-0.415,0.124-0.285,0.267-0.021,0.399c0.294,0.091,0.563,0.202,0.796,0.32
							c-0.147-0.076-0.537-0.191-0.796-0.32c-0.356-0.109-0.752-0.191-1.213-0.229c-0.68,0.083-1.392,0.143-2.129,0.113
							c0.814-0.141,1.52-0.166,2.129-0.113c0.429-0.06,0.842-0.118,1.256-0.175c0.118-0.033,0.237-0.065,0.36-0.1
							c-1.708,0.014-3.406,0.028-5.106,0.042c-0.39,0.039-0.763,0.073-1.065,0.116c-1.227,0.172-2.449,0.343-3.224-0.096
							c-0.301,0-0.607,0.001-0.913,0.002l0.179,0.08c-0.137-0.024-0.252-0.052-0.346-0.079c-1.282-0.013-2.57-0.025-3.864-0.038
							c-0.828,0.197-1.682,0.441-2.539,0.595c0,0-0.591-0.309-0.882-0.461c-0.343,0.247-0.838,0.415-1.422,0.507
							c0.704,0.273,1.347,0.578,1.944,0.763c0.882,0.462,1.905-1.001,2.956-0.117c-1.051-0.885-2.074,0.579-2.956,0.117
							c-0.598-0.185-1.24-0.489-1.944-0.763c-1.214,0.196-2.798,0.056-4.081-0.387c1.565-0.437,2.904-0.071,4.081,0.387
							c0.584-0.092,1.079-0.26,1.422-0.507c0.291,0.152,0.882,0.461,0.882,0.461c0.857-0.154,1.711-0.398,2.539-0.595
							c-2.523-0.031-5.072-0.063-7.678-0.095c-16.761-0.28-32.196,0.135-49.571,0.028c-9.413-0.115-18.452-0.269-27.323-0.764
							c-17.692-1.058-33.819,0.285-51.692-2.075c-6.858-0.826-19.582-0.322-26.191-0.199c-8.855,1.625-4.265,5.729-3.847,5.96
							c5.449,3.492,9.71,1.528,20.816,3.553c-7.564-1.146,5.572-2.279,12.722,0.102c10.35,3.628,25.077,0.646,37.832,1.539
							c3.19,0.224,6.576,0.046,10.388,0.106c19.784,0.965,38.14-1.03,58.931-1.134c5.51-0.12,10.325-1.105,14.949-1.685
							c3.382-0.232,7.016,0.167,9.771,0.111c4.33-0.068,8.046-0.565,11.598-1.108c-3.981,0.309-6.885,0.704-11.328,0.914
							c-2.964,0.118,2.023-1.271,3.978-1.581c0.832-0.242,2.188,0.775,3.021,0.53c1.826-0.065,3.49-0.555,5.44-0.895
							c0.834-0.244,0.771,0.72,1.187,0.599c2.667-0.313,4.682-1.611,6.399-1.416c1.301,0.105,2.478,0.201,3.624,0.294
							c0.724,0.024,1.441,0.038,2.203-0.03c0.47-0.098,0.957-0.198,1.444-0.299c-0.4-0.278-0.556-0.631-0.7-0.987
							c0.708,0.024,1.713,0.196,2.421,0.221c-0.708-0.025-1.713-0.197-2.421-0.221c0.145,0.356,0.3,0.709,0.7,0.987
							c3.496-0.694,7.533-1.393,11.284-1.98c-0.017-0.026-0.037-0.056-0.055-0.083c-2.201,0.199-4.356,0.21-6.671-0.267
							c0.999,0.166,0.89,0.438-0.237,0.546c-0.296-0.148-0.593-0.297-0.886-0.443c1.955-0.352,3.901-0.72,5.794-0.112
							c0,0,0.831-0.254,1.242-0.38c0.629,0.104,0.614,0.406,0.758,0.657c0.429-0.045,0.862-0.09,1.298-0.136
							C286.863,84.384,283.941,83.903,283.941,83.903z"/>
						<path fill="#2B3990" d="M261.279,84.785c0.299-0.042,0.667-0.077,1.059-0.114c-1.427,0.006-2.854,0.013-4.288,0.02
							C258.824,85.13,260.05,84.957,261.279,84.785z"/>
					</g>
				</g>
			</g>
		</g>
	</g>
</g>
<g>
	<g>
		<g>
			<path fill="#414042" d="M331.913,35.778c-2.182-1.385-4.319-2.489-6.473-3.423c-2.164-0.917-4.351-1.652-6.818-2.055
				c-1.232-0.203-2.554-0.3-4.048-0.17c-0.382,0.046-0.764,0.092-1.157,0.156c-0.418,0.104-0.841,0.219-1.266,0.346
				c-0.425,0.126-0.909,0.388-1.359,0.608l-0.172,0.089l-0.085,0.045l-0.043,0.023l-0.021,0.011
				c0.118-0.073-0.278,0.171,0.262-0.162l-0.007,0.003l-0.224,0.109l-0.45,0.222c-1.205,0.583-2.451,1.3-3.763,2.233
				c-0.656,0.476-1.329,1.01-2.022,1.713l-0.519,0.541c-0.206,0.251-0.408,0.51-0.604,0.776c-0.196,0.25-0.387,0.563-0.565,0.887
				c-0.179,0.322-0.356,0.645-0.478,0.994c-0.384,0.92-0.628,2.084-0.468,3.449c0.159,1.344,0.836,2.939,2.122,4.302
				c0.147,0.153,0.299,0.31,0.452,0.469c0.159,0.16,0.27,0.248,0.412,0.378c0.275,0.252,0.547,0.466,0.832,0.692
				c0.565,0.437,1.158,0.848,1.767,1.239c1.209,0.79,2.562,1.546,3.796,2.362c0.29,0.199,0.66,0.463,0.948,0.685
				c0.118,0.104,0.274,0.213,0.336,0.282c0.04,0.036,0.077,0.068,0.108,0.097l0.024,0.02l0.011,0.009l0.003,0.002l0.001,0l0,0
				c0.104,0.13-0.91-1.134-0.48-0.599l0.002,0.002l0.005,0.007l0.021,0.03c0.058,0.077,0.109,0.146,0.155,0.208v0
				c0.561,0.765,1.108,1.185,1.561,1.522c0.415,0.263,0.808,0.507,1.043,0.603c0.503,0.23,0.733,0.32,0.733,0.32
				s0.252,0.089,0.663,0.235c0.396,0.127,0.938,0.279,1.472,0.387c1.097,0.234,2.251,0.374,3.034,0.46
				c2.32,0.252,4.128,0.486,5.369,0.894c1.26,0.418,1.654,0.839,1.882,1.173c0.234,0.356,0.373,0.996,0.396,1.688
				c0.003,0.178,0.005,0.349,0.007,0.513c-0.015,0.181-0.029,0.354-0.044,0.519c-0.009,0.321-0.08,0.653-0.12,0.938l-0.014,0.104
				l-0.002,0.028c-0.001,0.002,0.009-0.029-0.037,0.104c-0.058,0.19-0.165,0.36-0.237,0.544c-0.204,0.345-0.397,0.698-0.683,1.023
				c-0.53,0.665-1.226,1.292-2.015,1.852c-1.581,1.128-3.431,2.018-5.32,2.787c-1.898,0.773-3.872,1.43-5.984,2
				c-2.118,0.556-4.368,1.065-6.939,1.207c2.351,1.087,4.74,1.707,7.078,2.094c2.348,0.375,4.687,0.5,7.126,0.278
				c2.435-0.234,4.996-0.762,7.709-2.134c1.348-0.69,2.741-1.627,4.021-2.975c0.647-0.657,1.23-1.462,1.76-2.332
				c0.239-0.454,0.498-0.909,0.69-1.404c0.117-0.306,0.235-0.614,0.355-0.924c0.077-0.173,0.07-0.342,0.11-0.515l0.075-0.449
				c0.069-0.447,0.167-0.925,0.205-1.518c0.023-0.29,0.049-0.594,0.075-0.912c0-0.337,0-0.689,0-1.057
				c-0.062-1.462-0.256-3.458-1.572-5.619c-0.65-1.068-1.608-2.048-2.682-2.806c-1.076-0.76-2.259-1.299-3.418-1.671
				c-2.322-0.746-4.662-0.974-6.889-1.232c-0.74-0.091-1.723-0.208-2.357-0.333c-0.333-0.059-0.552-0.122-0.696-0.16
				c-0.125-0.038-0.201-0.06-0.201-0.06c-0.011,0.001-0.029-0.025-0.102-0.053c-0.027-0.007-0.032-0.013-0.019-0.013
				c-0.004,0.01,0.017-0.023-0.01,0.023l-0.092,0.152c-0.066,0.104-0.141,0.21-0.226,0.319c-0.189,0.326-0.534,0.653-0.638,0.727
				l0,0c-0.017,0.011-0.036,0.023-0.058,0.037l-0.009,0.005l-0.002,0.001v0c-0.802,1.339,1.092-1.824,0.896-1.499h-0.001
				l-0.002-0.002l-0.007-0.008l-0.031-0.031l-0.066-0.065c-0.094-0.09-0.2-0.193-0.316-0.306c-0.242-0.239-0.493-0.432-0.774-0.67
				c-0.542-0.429-1.108-0.821-1.5-1.07c-1.636-1.069-2.899-1.764-3.878-2.406c-0.492-0.314-0.896-0.598-1.225-0.85
				c-0.157-0.125-0.314-0.245-0.423-0.349l-0.159-0.139l-0.063-0.063c-0.053-0.048-0.021-0.004-0.037-0.019
				c0.01-0.016-0.03,0.03,0.018-0.039l0.057-0.085l0.219-0.238c0.288-0.325,0.68-0.685,1.096-1.032
				c0.845-0.697,1.767-1.383,2.721-2.019l0.351-0.242l0.173-0.122l0.335-0.209c0.094-0.05,0.109-0.142,0.249-0.211
				c0.141-0.068,0.278-0.146,0.417-0.234l0.557-0.205c0.79-0.263,1.735-0.468,2.725-0.595c1.981-0.271,4.094-0.384,6.307-0.428
				C327.005,35.567,329.345,35.577,331.913,35.778z"/>
		</g>
	</g>
</g>
<g>
	<path fill="none" stroke="#565759" stroke-miterlimit="10" d="M332,18"/>
</g>
<g>
	<g>
		<g>
			<g>
				<g opacity="0.8">
					<path fill="#ED1C24" d="M313.144,27.823c-1.474-1.304-4.029-0.352-5.429-0.593c-0.484,0.026-0.87,0.008-1.19-0.083
						c-0.27-0.077,0.276-0.075,1.19,0.083c0.367-0.024,0.794-0.072,1.289-0.142c-0.867-0.459-1.702-0.929-2.326-1.346
						c-0.29,0.078-0.587,0.148-0.896,0.2c-1.341,0.262-2.559,0.701-3.948,0.695c-0.507-0.013-1.493,0.272-2.038,0.04
						c0,0,1.384-0.289,2.771-0.669c1.387-0.372,2.771-0.812,2.771-0.812c-0.063-0.015-0.129-0.036-0.196-0.064
						c0,0-0.776,0.097-1.553,0.193c-0.771,0.078-1.541,0.155-1.541,0.155c-0.161,0.049-0.334,0.068-0.529,0.041l0.529-0.041
						c0.421-0.134,0.754-0.457,1.185-0.672c0.293-0.063,0.717,0.077,1.011,0.004c0.251-0.031,0.591,0.196,0.898,0.32l0.466-0.063
						c0.027-0.048,0.06-0.092,0.1-0.122l-0.014-0.017c-0.48-0.634-1.8-1.072-3.019-1.34c-1.225-0.261-2.348-0.355-2.574-0.123
						c-0.372,0.335-0.379,1.664-0.845,1.964c-0.155,0.103-0.396-0.179-0.44,0.137c0.044,0.188,0.021,0.346-0.003,0.506
						c-0.315,0.2-0.849-0.404-0.953,0.225c-0.137,0.292-1.407-2.624-1.289-2.058c0.376,2.096,0.098,0.573-0.348,0.483
						c-0.058-0.033-0.023,0.846-0.146,0.776c-0.445-0.451-0.392,0.288-0.735,0.593c-0.471,0.779-0.787-0.55-1.113,0.864
						c-0.022,0.081-0.207,0.352-0.397,0.609c-0.198,0.254-0.385,0.494-0.385,0.494c-0.644-0.145-1.066,0.925-1.543-0.572
						c-0.282,0.63-0.642,0.579-0.935,0.34c-0.311-0.219-0.556-0.59-0.838-0.521c-0.578,0.126-0.552-0.979-0.517-1.943
						c-0.038-0.158-0.126-0.1-0.052-0.385c0.084-0.283-0.363,0.417-0.387,0.253l0.282-0.51c-0.005-0.049,0.011-0.163,0.015-0.213
						c0.007-0.055,0.105-0.22,0.202-0.387c0.194-0.333,0.379-0.673,0.507-0.935c0.134-0.312,0.233-0.52,0.344-0.682
						c-0.163,0.227-0.396,0.499-0.651,0.739c-0.177,0.197-0.353,0.394-0.497,0.556l-0.336,0.282
						c-0.402,0.419-0.837,0.871-1.105,1.151c-1.099,1.217-2.421,2.172-3.438,3.266c-0.283,0.33-0.01,0.772-0.314,1.535
						c-0.108,0.224-0.555,0.539-0.986,0.932c0.279,0.247-0.087,0.756-0.554,1.055c0.042,0.104,0.091,0.2,0.091,0.201
						c-0.142,0.135-0.565,0.538-0.565,0.538c0.216,0.616,0.41,1.44,0.778,2.064c0.361,0.627,0.88,1.108,1.561,1.007
						c0.268,0.014,0.816-0.206,1.154-0.399c0.168-0.091,0.312,0.319,0.395,0.399c0.344-0.442,0.519-1.046,0.77-1.573
						c0.457,0.798,1.814,2.116,2.126,0.044c0.496,0.188,0.742-0.746,1.229-0.793c0.646-0.075,1.431-0.166,2.204-0.255
						c0.412-0.135,0.794-0.124,1.184-0.148c0.144-0.018,0.283-0.036,0.416-0.053c1.417-0.226,2.662-0.089,3.876-0.175
						c1.204-0.086,2.366-0.395,3.366-1.541c1.981-2.301,4.484-2.898,6.842-3.006c2.336-0.102,4.427,0.344,5.068,0.299
						L313.144,27.823z"/>
				</g>
			</g>
		</g>
	</g>
</g>
</svg>
